<svg width="512" height="512" viewBox="0 0 512 512" fill="none" xmlns="http://www.w3.org/2000/svg" xmlns:xlink="http://www.w3.org/1999/xlink" class=""><rect id="_r_if_" width="512" height="512" x="0" y="0" rx="128" fill="url(#_r_ig_)" stroke="#FFFFFF" stroke-width="0" stroke-opacity="100%" paint-order="stroke"></rect><clipPath id="clip"><use xlink:href="#_r_if_"></use></clipPath><defs><linearGradient id="_r_ig_" gradientUnits="userSpaceOnUse" gradientTransform="rotate(45)" style="transform-origin: center center 0px;"><stop stop-color="#6c5ce7"></stop><stop offset="1" stop-color="#4b0082"></stop></linearGradient><radialGradient id="_r_ih_" cx="0" cy="0" r="1" gradientUnits="userSpaceOnUse" gradientTransform="translate(256) rotate(90) scale(512)"><stop stop-color="white"></stop><stop offset="1" stop-color="white" stop-opacity="0"></stop></radialGradient></defs><svg xmlns="http://www.w3.org/2000/svg" fill="none" viewBox="0 0 16 16" width="352" height="352" x="80" y="80" style="color: rgb(255, 255, 255); width: 352px; height: 352px;" alignment-baseline="middle"><path fill="currentColor" d="M6.031 12.35c-2.306.644 1.404 1.976 4.34.717a5.436 5.436 0 0 1-.826-.402c-1.31.247-1.917.267-3.105.13-.981-.111-.409-.445-.409-.445Zm3.989-1.257c-1.736.334-2.739.323-4.008.192-.982-.101-.34-.577-.34-.577-2.54.843 1.415 1.8 4.965.761-.378-.133-.617-.376-.617-.376Zm1.36-7.279S6.245 5.096 8.697 7.922c.724.834-.19 1.583-.19 1.583s1.838-.948.994-2.136C8.713 6.26 8.11 5.71 11.38 3.814Zm1.201 9.75s.424.35-.467.62c-1.695.514-7.054.669-8.543.021-.535-.233.468-.556.784-.624.33-.07.517-.058.517-.058-.595-.419-3.847.823-1.651 1.18 5.987.97 10.913-.438 9.36-1.138ZM10.524 9.92c.287-.197.685-.367.685-.367s-1.133.202-2.26.297c-1.382.116-2.863.139-3.607.04-1.76-.236.965-.884.965-.884s-1.059-.071-2.36.558c-1.54.745 3.808 1.084 6.577.356Zm.674 1.82c-.013.035-.057.074-.057.074 3.758-.988 2.377-3.483.58-2.851-.158.056-.24.185-.24.185s.1-.04.321-.086c.909-.19 2.21 1.216-.604 2.678ZM8.022 8.98c-.555-1.254-2.435-2.35 0-4.274C11.06 2.31 9.503.75 9.503.75c.628 2.476-2.218 3.224-3.245 4.767-.7 1.05.343 2.18 1.765 3.462Zm3.277 6.218c-2.305.434-5.15.383-6.836.105 0 0 .346.286 2.12.4 2.702.173 6.85-.096 6.948-1.374 0 0-.188.484-2.232.869Z"></path><path fill="currentColor" d="m6.031 12.35.118.203-.18-.429.062.226Zm4.34.717.093.216.527-.226-.535-.208-.085.218Zm-.826-.402.124-.2-.077-.048-.09.017.043.23Zm-3.105.13-.027.234.027-.233Zm3.58-1.702.167-.164-.088-.09-.124.024.045.23Zm-4.008.192-.024.233.024-.233Zm-.34-.577.14.188-.213-.41.074.222Zm4.965.761.065.225.699-.204-.687-.242-.078.221Zm.743-7.655V3.58h-.063l-.055.031.118.203ZM8.697 7.922l-.177.154.177-.154Zm-.19 1.583-.148-.181.256.389-.108-.208Zm.994-2.136.191-.136-.19.136Zm3.08 6.196.097-.214-.246.395.15-.181Zm-.467.62.068.224-.068-.224Zm-8.543.02-.094.215.094-.215Zm.784-.624.05.23-.05-.23Zm.517-.058-.016.234.837.058-.686-.483-.135.191Zm-1.651 1.18-.038.23.038-.23Zm7.303-4.783.06.226.038-.01.034-.023-.132-.193Zm.685-.367.092.215-.133-.446.041.23Zm-2.26.297.019.234-.02-.234Zm-3.607.04.03-.233-.03.232Zm.965-.884.054.228-.038-.461-.016.233Zm-2.36.558.102.211-.102-.21Zm7.25 2.176-.107-.208-.08.041-.032.085.22.082Zm-.056.074-.157-.174.217.4-.06-.226Zm.58-2.851-.078-.221.078.22Zm-.24.185-.198-.126-.393.617.678-.273-.088-.218Zm.321-.086-.047-.23.047.23Zm-3.78-.083-.157.174.371-.269-.214.095Zm0-4.273-.144-.184.145.184ZM9.503.75l.165-.166-.603-.603.21.827.227-.058ZM6.256 5.517l-.195-.13.195.13Zm5.042 9.68-.043-.23.043.23Zm-6.836.106.039-.232-.856-.14.668.552.15-.18Zm2.12.4-.014.234.015-.234Zm6.948-1.374v-.235h-.217l-.016.217.233.018Zm-7.563-2.205c-.3.084-.532.186-.684.314a.59.59 0 0 0-.18.244.446.446 0 0 0-.001.307c.064.18.23.313.4.407.18.1.41.186.674.253 1.05.267 2.765.286 4.287-.366l-.185-.431c-1.415.606-3.023.588-3.986.343a2.401 2.401 0 0 1-.562-.208c-.143-.08-.181-.14-.186-.154v.004a.027.027 0 0 1 0 .007h-.001s.007-.017.042-.047c.076-.064.231-.144.509-.221l-.127-.452Zm4.488.725a5.514 5.514 0 0 1-.774-.375l-.01-.007H9.67v-.001l-.125.199-.124.198.002.002.004.002.013.008a3.629 3.629 0 0 0 .228.128c.153.08.368.185.618.283l.17-.437Zm-.954-.415c-1.288.244-1.872.262-3.036.129l-.053.466c1.213.138 1.844.118 3.176-.134l-.087-.46Zm-3.036.129c-.237-.027-.347-.065-.39-.089-.019-.01-.007-.009.007.015.016.029.02.063.014.09-.007.032-.02.03.013.003a.334.334 0 0 1 .03-.024l.01-.005v-.001l-.119-.202-.118-.202a.017.017 0 0 1-.001 0l-.003.002-.008.005a.91.91 0 0 0-.097.071.485.485 0 0 0-.166.256.337.337 0 0 0 .038.24.439.439 0 0 0 .172.161c.126.07.312.117.565.146l.053-.466Zm3.51-1.7c-1.712.33-2.69.318-3.94.19l-.048.465c1.29.134 2.316.144 4.076-.195l-.089-.46Zm-3.94.19c-.235-.025-.325-.069-.35-.088-.007-.005.004.001.01.023.007.02.003.035.003.036v-.002a.393.393 0 0 1 .098-.114.406.406 0 0 1 .013-.01l.003-.002-.14-.188-.14-.188H5.53l-.002.003-.008.006-.025.02c-.02.017-.048.042-.077.072a.68.68 0 0 0-.17.273.405.405 0 0 0 0 .234.424.424 0 0 0 .154.211c.13.1.329.153.585.18l.048-.467Zm-.437-.568c-.327.109-.575.227-.737.359-.16.132-.289.33-.205.564.068.19.256.314.435.398.194.09.445.163.734.218 1.153.222 3.067.2 4.876-.33l-.131-.45c-1.741.51-3.58.527-4.656.32a2.8 2.8 0 0 1-.625-.183.714.714 0 0 1-.156-.093c-.033-.028-.037-.042-.036-.039.015.041-.033.035.061-.042.095-.078.279-.174.587-.277l-.147-.444Zm5.115.763a1.56 1.56 0 0 1-.522-.314l-.005-.005c0-.001 0 0 0 0l-.167.164-.167.165.002.002.003.003a.549.549 0 0 0 .05.046 2.03 2.03 0 0 0 .65.381l.156-.442Zm.666-7.2c-.233-.205-.058-.461-.058-.461a.538.538 0 0 0-.016.004 3.607 3.607 0 0 0-.21.06c-.139.04-.335.104-.562.188-.452.167-1.037.424-1.548.776-.506.35-.973.816-1.13 1.413-.163.615.018 1.303.664 2.048l.354-.307c-.58-.669-.676-1.201-.565-1.621.115-.438.472-.822.943-1.147.466-.321 1.011-.562 1.445-.723a8.824 8.824 0 0 1 .737-.236h.003s.175-.257-.057-.462v.468ZM8.52 8.076a.812.812 0 0 1 .22.465.747.747 0 0 1-.078.385 1.26 1.26 0 0 1-.303.398l.148.18.15.182.001-.002.003-.002a.796.796 0 0 0 .045-.04 1.77 1.77 0 0 0 .38-.516c.081-.173.141-.386.12-.625a1.277 1.277 0 0 0-.332-.733l-.354.308Zm-.013 1.429.108.208.002-.001.006-.003a1.875 1.875 0 0 0 .08-.045c.052-.03.125-.075.21-.132.167-.113.387-.28.58-.491.193-.21.373-.477.438-.79.068-.322.008-.67-.239-1.018l-.382.271c.175.247.202.463.162.651-.041.2-.162.392-.324.569-.16.174-.348.318-.498.42a3.241 3.241 0 0 1-.25.152l.107.209Zm1.185-2.272c-.206-.29-.374-.509-.48-.724-.099-.202-.126-.37-.07-.552.06-.195.229-.441.606-.765.375-.322.937-.704 1.75-1.175l-.236-.406c-.822.477-1.412.876-1.82 1.225-.404.347-.649.664-.748.982-.102.331-.036.626.098.898.127.26.33.524.518.788l.382-.271Zm2.89 6.332-.15.18h-.002v-.002h-.002l.002.001a.118.118 0 0 1 .011.014c.01.014.006.016.007.005 0-.02.012-.008-.034.03-.052.043-.16.104-.368.168l.136.448c.237-.072.411-.156.53-.255a.51.51 0 0 0 .204-.37.48.48 0 0 0-.09-.295.583.583 0 0 0-.09-.1l-.003-.003-.002-.001-.15.18Zm-.536.396c-.813.246-2.548.413-4.284.435-.863.01-1.717-.014-2.445-.082-.736-.068-1.317-.178-1.653-.324l-.187.43c.41.178 1.056.292 1.797.36.748.07 1.62.096 2.494.085 1.74-.022 3.532-.189 4.414-.456l-.136-.449Zm-8.382.03c-.051-.023-.05-.033-.038-.016a.14.14 0 0 1 .017.126c-.01.024-.019.024.007.003a.647.647 0 0 1 .104-.065c.197-.105.504-.197.65-.229l-.098-.458c-.17.037-.522.14-.772.272a1.1 1.1 0 0 0-.182.119.474.474 0 0 0-.148.195.33.33 0 0 0 .046.316.55.55 0 0 0 .227.166l.187-.43Zm.74-.18a2.38 2.38 0 0 1 .433-.054H4.857l.015-.234.016-.234h-.016a1.152 1.152 0 0 0-.15.003c-.1.006-.24.022-.417.06l.1.458Zm.603-.48c-.13-.091-.302-.12-.458-.126a2.572 2.572 0 0 0-.536.045c-.374.066-.79.2-1.117.362a1.99 1.99 0 0 0-.43.275c-.106.094-.225.234-.231.414-.007.207.132.349.287.436.156.087.377.15.661.197l.075-.463c-.264-.043-.422-.096-.507-.143-.084-.048-.046-.057-.048-.011 0 .02-.008-.007.074-.079a1.54 1.54 0 0 1 .327-.206c.285-.14.657-.261.991-.32.167-.03.317-.043.436-.039.128.005.188.029.206.042l.27-.383Zm-1.824 1.603c3.019.49 5.774.38 7.586.057.898-.16 1.595-.377 1.973-.619a1.02 1.02 0 0 0 .248-.212.48.48 0 0 0 .115-.31c-.006-.254-.225-.408-.427-.499l-.193.427c.186.085.152.128.151.082 0-.02.009-.02-.012.007a.569.569 0 0 1-.135.11c-.295.19-.914.394-1.802.553-1.759.313-4.46.422-7.429-.059l-.075.463Zm7.473-4.82c.13-.09.29-.176.422-.241a5.6 5.6 0 0 1 .22-.103l.003-.001-.092-.216a77.256 77.256 0 0 0-.092-.215h-.002l-.004.002-.014.006a3.922 3.922 0 0 0-.227.107c-.14.069-.321.166-.478.273l.264.387Zm.553-.561-.041-.23h-.003l-.01.001a10.072 10.072 0 0 1-.179.03 25.604 25.604 0 0 1-2.048.262l.04.468a26.1 26.1 0 0 0 2.23-.291 8.724 8.724 0 0 0 .049-.009h.003l-.041-.231Zm-2.28.064c-1.378.115-2.839.136-3.556.04l-.062.465c.77.103 2.272.078 3.657-.038l-.04-.467Zm-3.556.04a1.7 1.7 0 0 1-.403-.089c-.032-.013-.033-.02-.022-.008.015.016.04.057.035.112-.003.045-.025.067-.02.062a.237.237 0 0 1 .041-.033c.055-.036.14-.08.25-.125.218-.09.493-.175.718-.24a11.72 11.72 0 0 1 .382-.1l.006-.001h.001l-.054-.229-.054-.228-.002.001-.007.001-.023.006a9.717 9.717 0 0 0-.376.1c-.23.065-.527.156-.77.257-.121.05-.24.107-.332.169a.678.678 0 0 0-.134.114.362.362 0 0 0-.093.206.32.32 0 0 0 .09.25.528.528 0 0 0 .18.117c.123.053.299.092.525.123l.062-.465Zm.934-.65.016-.234H6.32a.45.45 0 0 1-.015-.001 1.789 1.789 0 0 0-.19-.001c-.128.003-.31.014-.534.046a5.928 5.928 0 0 0-1.737.536l.204.422a5.46 5.46 0 0 1 1.599-.494 4.216 4.216 0 0 1 .636-.041.625.625 0 0 1 .008 0l.015-.234Zm-2.462.346c-.107.052-.201.11-.272.178a.397.397 0 0 0-.133.305.393.393 0 0 0 .158.283.951.951 0 0 0 .254.136c.365.14 1.008.23 1.754.273 1.504.088 3.56-.009 4.977-.382l-.119-.453c-1.352.356-3.354.454-4.83.367-.745-.043-1.324-.131-1.615-.243a.508.508 0 0 1-.128-.064c-.019-.015.014.003.017.058.003.056-.029.076-.009.057a.61.61 0 0 1 .15-.093l-.204-.422Zm7.133 2.305c.006-.016.012-.024.012-.025l-.001.002a.102.102 0 0 1-.006.006h.001l.157.173.158.173.002-.002.003-.002.01-.01a.406.406 0 0 0 .104-.152l-.44-.163Zm.223.382c.963-.253 1.623-.609 2.033-1.01.413-.404.576-.86.512-1.284-.128-.851-1.104-1.355-2.103-1.004l.156.442c.798-.28 1.41.147 1.483.632.037.244-.047.557-.376.88-.332.324-.908.65-1.824.891l.119.453Zm.442-3.298a.732.732 0 0 0-.35.266l-.006.008a.05.05 0 0 0-.003.005l-.001.001.197.126.198.126v.001h-.001v.002c-.001 0-.001 0 0 0l.003-.005a.289.289 0 0 1 .119-.088l-.156-.442Zm-.163.406.088.218h-.001a2.718 2.718 0 0 1 .282-.075l-.095-.459a3.187 3.187 0 0 0-.351.095l-.006.002-.002.001h-.002l.087.218Zm.37.143c.343-.071.753.169.815.53.059.345-.181.987-1.575 1.71l.216.417c1.42-.738 1.936-1.53 1.821-2.206-.113-.66-.807-1.028-1.373-.91l.096.46Zm-3.614-.407c-.15-.339-.388-.665-.598-.965-.218-.311-.41-.601-.516-.902a1.247 1.247 0 0 1 .013-.92c.136-.341.441-.74 1.033-1.207l-.29-.368c-.627.495-1 .955-1.178 1.4-.182.454-.153.87-.02 1.25.13.37.359.709.574 1.016.222.317.426.599.554.886l.428-.19ZM8.168 4.89c1.551-1.224 1.979-2.275 1.967-3.064A1.966 1.966 0 0 0 9.904.92a1.743 1.743 0 0 0-.237-.335L9.501.75l-.166.165a.402.402 0 0 1 .042.05c.03.039.071.098.114.177.084.157.171.39.175.69.009.59-.303 1.518-1.788 2.69l.29.368ZM9.274.808c.145.57.088 1.028-.085 1.42-.175.4-.476.747-.846 1.082-.375.34-.79.64-1.205.977-.405.329-.799.683-1.076 1.1l.39.26c.236-.355.583-.672.981-.996.388-.314.838-.644 1.224-.994.391-.354.748-.754.961-1.24.217-.493.28-1.057.11-1.725l-.454.116ZM6.062 5.387a1.472 1.472 0 0 0-.258.952c.025.323.153.638.34.944.371.607 1.012 1.23 1.72 1.87l.315-.348C7.466 8.162 6.875 7.58 6.544 7.04c-.164-.268-.255-.512-.273-.737-.017-.22.034-.435.181-.655l-.39-.26Zm5.194 9.58c-2.277.429-5.093.379-6.754.104l-.077.463c1.712.282 4.583.333 6.918-.106l-.087-.46Zm-6.793.336a10.803 10.803 0 0 0-.148.18v.002l.002.001.005.003a.43.43 0 0 0 .036.025c.02.013.05.029.086.047.075.035.187.079.351.125.329.091.876.193 1.774.25l.03-.467c-.877-.056-1.39-.155-1.678-.235a1.739 1.739 0 0 1-.315-.118c-.003-.001-.003-.002-.002 0 0 0 .002 0 .003.002l.003.002a.037.037 0 0 0 .002.002l-.149.18Zm2.106.634c1.362.087 3.092.063 4.499-.145.702-.104 1.34-.256 1.813-.472.459-.208.849-.516.884-.973l-.467-.036c-.014.182-.18.387-.61.583-.416.188-1.003.333-1.689.434-1.366.202-3.061.227-4.4.141l-.03.468Zm6.962-1.374a.435.435 0 0 1-.222-.308l.002-.007.002-.004a.06.06 0 0 1 .002-.004l.002-.006a.317.317 0 0 1 .003-.007l.003-.005c0 .001-.006.01-.022.026-.03.032-.098.09-.234.167-.272.152-.803.363-1.811.552l.087.461c1.035-.195 1.62-.418 1.953-.604.167-.094.274-.18.343-.25a.648.648 0 0 0 .106-.148l.003-.008.002-.004s0-.003.002-.005l.002-.007a.435.435 0 0 0-.223-.308v.47Z"></path></svg></svg>